HIERARCHY
ROOT Hips
{
	OFFSET 0.0000 0.0000 0.0000
	CHANNELS 6 Xposition Yposition Zposition Zrotation Xrotation Yrotation
	JOINT Spine1
	{
		OFFSET -0.0137 5.0038 -0.0537
		CHANNELS 3 Zrotation Xrotation Yrotation
		JOINT Spine2
		{
			OFFSET -0.0000 7.1253 -0.0298
			CHANNELS 3 Zrotation Xrotation Yrotation
			JOINT Chest
			{
				OFFSET -0.0000 7.5501 -0.8160
				CHANNELS 3 Zrotation Xrotation Yrotation
				JOINT Neck1
				{
					OFFSET -0.1817 26.3113 -0.5533
					CHANNELS 3 Zrotation Xrotation Yrotation
					JOINT Neck2
					{
						OFFSET -0.0000 7.7094 2.3026
						CHANNELS 3 Zrotation Xrotation Yrotation
						JOINT Head
						{
							OFFSET -0.0000 6.1289 1.9537
							CHANNELS 3 Zrotation Xrotation Yrotation
							JOINT Jaw
							{
								OFFSET 0.0026 0.4756 3.0949
								CHANNELS 3 Zrotation Xrotation Yrotation
								End Site
								{
									OFFSET 0.0 1.0 0.0
								}
							}
							JOINT LeftEye
							{
								OFFSET 3.2064 5.3802 7.5869
								CHANNELS 3 Zrotation Xrotation Yrotation
								End Site
								{
									OFFSET 0.0 1.0 0.0
								}
							}
							JOINT RightEye
							{
								OFFSET -3.2224 5.3619 7.5582
								CHANNELS 3 Zrotation Xrotation Yrotation
								End Site
								{
									OFFSET 0.0 1.0 0.0
								}
							}
						}
					}
				}
				JOINT LeftShoulder
				{
					OFFSET 1.6217 23.2372 5.1134
					CHANNELS 3 Zrotation Xrotation Yrotation
					JOINT LeftArm
					{
						OFFSET 14.9198 0.0000 -5.5023
						CHANNELS 3 Zrotation Xrotation Yrotation
						JOINT LeftForeArm
						{
							OFFSET 28.7393 0.0000 -0.0026
							CHANNELS 3 Zrotation Xrotation Yrotation
							JOINT LeftHand
							{
								OFFSET 27.0940 -0.0000 0.0026
								CHANNELS 3 Zrotation Xrotation Yrotation
								JOINT LeftHandThumbEnd
								{
									OFFSET 12.2686 -3.2202 4.8331
									CHANNELS 3 Zrotation Xrotation Yrotation
									End Site
									{
										OFFSET 0.0 1.0 0.0
									}
								}
								JOINT LeftHandMiddleEnd
								{
									OFFSET 19.0120 -0.3129 -0.0340
									CHANNELS 3 Zrotation Xrotation Yrotation
									End Site
									{
										OFFSET 0.0 1.0 0.0
									}
								}
							}
						}
					}
				}
				JOINT RightShoulder
				{
					OFFSET -1.3801 23.1803 5.2142
					CHANNELS 3 Zrotation Xrotation Yrotation
					JOINT RightArm
					{
						OFFSET -15.0372 0.0000 -5.5456
						CHANNELS 3 Zrotation Xrotation Yrotation
						JOINT RightForeArm
						{
							OFFSET -28.7366 0.0000 -0.0026
							CHANNELS 3 Zrotation Xrotation Yrotation
							JOINT RightHand
							{
								OFFSET -27.1336 -0.0000 0.0026
								CHANNELS 3 Zrotation Xrotation Yrotation
								JOINT RightHandThumbEnd
								{
									OFFSET -12.2642 -3.2115 4.8040
									CHANNELS 3 Zrotation Xrotation Yrotation
									End Site
									{
										OFFSET 0.0 1.0 0.0
									}
								}
								JOINT RightHandMiddleEnd
								{
									OFFSET -19.0006 -0.3066 -0.0316
									CHANNELS 3 Zrotation Xrotation Yrotation
									End Site
									{
										OFFSET 0.0 1.0 0.0
									}
								}
							}
						}
					}
				}
			}
		}
	}
	JOINT LeftLeg
	{
		OFFSET 10.0432 -8.4345 2.5957
		CHANNELS 3 Zrotation Xrotation Yrotation
		JOINT LeftShin
		{
			OFFSET -0.0000 -43.2218 -0.8029
			CHANNELS 3 Zrotation Xrotation Yrotation
			JOINT LeftFoot
			{
				OFFSET 0.0000 -42.1551 -3.4815
				CHANNELS 3 Zrotation Xrotation Yrotation
				JOINT LeftToeBase
				{
					OFFSET 0.0000 -5.0595 13.2315
					CHANNELS 3 Zrotation Xrotation Yrotation
					End Site
					{
						OFFSET 0.0 1.0 0.0
					}
				}
			}
		}
	}
	JOINT RightLeg
	{
		OFFSET -10.0473 -8.2953 2.6203
		CHANNELS 3 Zrotation Xrotation Yrotation
		JOINT RightShin
		{
			OFFSET 0.0000 -43.3622 -0.8056
			CHANNELS 3 Zrotation Xrotation Yrotation
			JOINT RightFoot
			{
				OFFSET 0.0000 -42.1174 -3.4784
				CHANNELS 3 Zrotation Xrotation Yrotation
				JOINT RightToeBase
				{
					OFFSET -0.0000 -5.0796 13.2842
					CHANNELS 3 Zrotation Xrotation Yrotation
					End Site
					{
						OFFSET 0.0 1.0 0.0
					}
				}
			}
		}
	}
}
MOTION
Frames: 16
Frame Time: 0.033333
0.4743 85.7232 4.3794 2.8800 -2.2501 -2.2717 -2.5210 11.2994 -0.2725 -0.7001 -1.1696 -0.0482 -1.9600 25.2319 -2.6860 -7.0677 13.7553 4.1615 0.6124 -3.7813 4.9363 -1.8665 -14.5389 6.4055 -0.0654 -0.0039 0.1023 0.6317 -10.3282 -3.6623 -0.7754 -10.3155 3.9000 4.0970 20.2620 -11.2888 -23.4610 -17.7155 -0.4538 0.2697 -0.1621 -110.8018 30.5581 -34.3168 -22.2768 -15.4672 10.6075 15.6453 -61.0764 1.6246 2.2652 -3.5191 20.4803 18.8276 -2.8934 -1.3953 9.1796 1.0521 4.0936 107.9197 -12.2870 -44.3149 22.7241 15.0741 7.0871 -15.8146 48.4007 -3.6865 -5.2511 16.6236 -36.6935 3.5197 -1.2973 53.5674 -2.0553 -18.1278 -14.3292 -7.4508 1.5336 2.6085 -1.4881 -28.6864 -7.7778 14.6889 0.5568 49.7438 2.2567 31.1262 -21.2631 -4.0174 -1.4977 -5.1944 1.0613
0.4156 86.8013 3.2527 3.5267 0.1351 -0.2150 -2.3672 12.0684 -0.2471 -0.5531 -0.7461 0.6375 -1.5956 25.9425 -1.6674 -7.4611 13.2740 4.0974 0.0641 -3.7187 4.2062 -1.1256 -15.1405 5.3414 -0.0656 -0.0079 0.0881 0.5966 -10.2688 -3.6669 -0.7381 -10.2601 3.8724 4.4189 19.2770 -10.3608 -22.1162 -19.6604 0.2836 0.8073 -0.2655 -111.6291 30.1587 -34.0212 -21.9921 -15.5237 10.6372 15.4273 -61.3030 1.5925 2.1297 -5.0370 21.0644 21.2487 -11.1241 5.0959 8.0401 -0.3081 4.0755 104.9069 -13.9821 -49.2127 27.3725 15.1916 7.1681 -15.8135 48.2667 -3.8372 -5.3760 14.5951 -38.8407 3.8704 -1.2136 49.9736 -1.9352 -17.6113 -11.4795 -8.5490 1.5238 2.6353 -1.5706 -30.0708 -10.4122 14.2124 0.6911 49.3798 2.3749 30.2459 -18.5813 -2.7866 -1.4856 -6.5463 1.0683
0.2155 88.0285 2.2389 4.4607 2.9185 1.9310 -2.1898 12.5788 -0.2431 -0.3483 -0.3434 1.2334 -1.2188 26.5021 -0.5964 -7.6966 12.8730 3.9551 -0.4447 -3.6427 3.3814 -0.3881 -15.3894 4.2791 -0.0649 -0.0033 0.0663 0.5621 -10.2035 -3.6865 -0.6985 -10.2176 3.8428 4.7394 18.2206 -9.3784 -22.0409 -22.1055 0.3429 1.1118 -0.1072 -111.4904 29.3748 -32.9505 -21.1333 -15.5174 10.5993 15.2338 -61.3034 1.5985 2.0009 -6.9042 21.4229 23.5031 -17.2046 9.5220 5.0461 -0.9628 3.0147 102.6008 -16.1837 -51.4543 31.7442 15.5761 7.3858 -16.1185 49.0013 -3.9611 -5.6986 12.0772 -40.8560 4.6805 -1.1231 45.5181 -1.8154 -17.1226 -8.0737 -9.6953 1.5320 2.6501 -1.6680 -31.5131 -12.7273 13.9004 0.7154 48.0522 2.3872 29.3622 -16.1903 -1.9665 -1.4793 -7.4258 1.0879
-0.1605 89.1442 1.5262 5.3099 5.7862 4.2225 -1.9830 12.8523 -0.1623 -0.1194 -0.0206 1.6519 -0.6676 26.8087 0.4453 -7.5588 12.2766 3.9288 -0.6995 -3.5654 2.6245 0.0790 -15.5039 3.3518 -0.0642 0.0115 0.0606 0.5379 -10.1694 -3.6916 -0.6712 -10.1984 3.8345 5.3704 17.3243 -8.2966 -23.3677 -24.9913 0.1826 1.0853 0.2621 -110.8158 28.1766 -30.9376 -19.5742 -15.4322 10.5998 15.2618 -61.0876 1.7375 2.0150 -7.9260 21.3614 25.1844 -19.0491 10.2685 2.8852 -1.3759 1.7845 100.7587 -20.5600 -52.9904 36.2160 15.6327 7.3666 -16.1679 49.1763 -4.0966 -5.8614 9.6225 -42.8414 5.7730 -1.0448 41.1262 -1.7021 -16.6088 -4.5734 -11.0164 1.5579 2.6154 -1.7083 -32.5567 -14.4005 13.3860 0.6029 45.7673 2.2837 29.0141 -14.9506 -1.5649 -1.4955 -7.6227 1.1521
-0.5747 89.8660 1.1366 5.6588 8.2807 6.3862 -1.7322 12.9792 -0.0122 0.0668 0.1990 1.9402 0.2350 26.9704 1.3704 -7.1066 11.3099 4.1076 -0.7656 -3.5264 2.0794 0.2023 -15.7443 2.6674 -0.0407 0.0154 0.0436 0.5556 -10.1547 -3.7055 -0.6411 -10.1844 3.8041 6.2137 16.5550 -7.1846 -25.6293 -27.5736 0.6035 1.0011 0.5954 -110.8144 27.0212 -28.6569 -17.8962 -15.3041 10.6752 15.4084 -60.7042 1.9108 2.0955 -7.4991 21.0248 26.2241 -16.9553 7.9724 2.5964 -2.1522 0.7448 99.6868 -24.1655 -53.0222 38.3460 15.4059 7.0836 -15.9503 48.3852 -4.1967 -5.7491 7.9916 -44.9082 6.6014 -1.0273 38.0114 -1.6493 -16.1439 -1.6658 -12.1900 1.5835 2.4720 -1.6980 -32.8145 -15.6023 12.2987 0.4282 43.1588 2.0776 29.3423 -14.9262 -1.5056 -1.5227 -7.3074 1.2415
-0.9896 90.1719 0.9587 5.5296 10.2009 8.2227 -1.4653 13.0260 0.1254 0.1590 0.3415 2.0356 1.3383 27.0537 2.1298 -6.5184 10.1483 4.3314 -0.7719 -3.5302 2.0065 0.0323 -16.1678 2.3006 -0.0103 0.0115 0.0201 0.5970 -10.1143 -3.7216 -0.6209 -10.1278 3.7597 7.1105 16.0697 -6.3250 -28.1585 -29.2536 2.1727 0.9528 0.6328 -112.0141 25.9662 -26.4983 -16.4895 -15.1985 10.7244 15.5059 -60.4031 2.0100 2.1372 -6.0115 20.5248 26.6216 -12.9684 4.2503 3.3549 -2.8402 0.1725 99.7524 -21.7180 -49.7830 34.2539 15.2496 6.8388 -15.7779 47.6646 -4.1269 -5.5850 7.2856 -47.0346 6.9917 -1.0635 36.4837 -1.6500 -15.7380 0.4654 -13.1132 1.5947 2.3609 -1.6670 -32.3496 -16.4550 10.8519 0.2758 40.7976 1.8187 30.0556 -15.5989 -1.9940 -1.5401 -6.6692 1.3126
-1.3821 90.1765 0.8582 5.2143 11.4740 9.6429 -1.2567 13.0778 0.1621 0.1950 0.4405 1.9348 2.2982 27.1222 2.6379 -5.9068 9.0865 4.4745 -0.7947 -3.5144 2.3115 -0.4456 -16.8182 2.3299 0.0029 0.0116 0.0046 0.6250 -10.0402 -3.7237 -0.6244 -10.0355 3.7291 7.9146 16.0050 -5.8791 -30.4625 -29.9918 4.5460 0.9597 0.5613 -113.9139 24.9580 -24.8339 -15.4554 -15.1169 10.7695 15.5706 -60.5032 2.0042 2.1038 -4.1300 19.8554 26.2869 -8.2023 0.0263 4.5627 -2.8344 0.0627 100.2616 -15.9951 -44.7240 27.3788 15.2267 6.8329 -15.9106 47.6225 -3.9994 -5.5340 7.2134 -48.8565 6.9880 -1.1188 36.0407 -1.6851 -15.4097 1.7978 -13.7903 1.5944 2.3298 -1.6492 -31.5292 -16.9266 9.2081 0.1427 38.7477 1.5133 30.8341 -16.7763 -3.0336 -1.5340 -5.5302 1.3398
-1.7624 90.0557 0.8036 5.1168 12.1527 10.7772 -1.1892 13.1049 0.0046 0.1429 0.5751 1.7924 2.9109 27.2097 2.5820 -5.1815 8.6267 4.3729 -0.9236 -3.5878 2.6787 -1.1350 -17.5604 2.8219 0.0082 0.0043 -0.0117 0.6324 -9.9634 -3.7134 -0.6227 -9.9539 3.6852 8.5167 16.2572 -5.8470 -32.3917 -30.2535 6.8888 1.0442 0.3776 -115.4805 24.0838 -23.6018 -14.8452 -14.9554 10.9578 15.6431 -60.9028 1.9807 1.9772 -2.6503 19.1763 25.1255 -3.1888 -3.9577 5.9776 -2.2963 0.0947 100.5927 -10.8156 -38.9709 21.0575 15.3688 7.0103 -16.1893 48.2854 -3.8372 -5.5542 7.0230 -50.0176 7.0675 -1.1086 35.9119 -1.6977 -15.0707 2.5114 -14.1246 1.5852 2.4872 -1.6616 -30.7626 -16.9760 7.3526 0.0182 36.8876 1.3262 31.1892 -18.6378 -4.6293 -1.4950 -3.9631 1.3216
-2.1336 90.1171 0.7126 4.9753 12.3913 11.2552 -1.0378 13.1146 -0.0995 0.0741 0.6504 1.5818 3.3081 27.4616 2.2864 -4.5407 8.5795 4.1741 -0.9330 -3.5967 2.9112 -1.9502 -17.9955 3.4288 -0.0101 -0.0023 0.0054 0.6087 -9.9649 -3.6953 -0.6362 -9.9472 3.7081 8.5426 16.6937 -6.2067 -34.1203 -30.5971 8.8514 0.9352 0.3588 -116.1415 23.8679 -23.3419 -14.8046 -14.9225 11.0040 15.6872 -60.9540 1.8663 1.9949 -1.3659 18.7077 23.8778 1.7456 -7.5120 6.9363 -1.7712 0.5960 100.5495 -7.6233 -34.2246 16.0613 15.3349 7.2453 -16.4334 48.9862 -3.7253 -5.5431 7.2049 -50.3306 6.9698 -1.1390 35.4498 -1.7751 -15.0521 3.2336 -14.0598 1.5888 2.5244 -1.6835 -30.0615 -17.1565 6.0511 -0.0306 35.8795 1.1831 30.9093 -19.4460 -5.4711 -1.4687 -2.9069 1.2960
-2.5456 90.3557 0.5283 4.7413 12.4675 11.1525 -0.8790 13.1712 -0.2026 0.0009 0.7270 1.3590 3.6476 27.6254 1.9438 -3.8801 8.9040 3.8516 -0.9224 -3.6065 3.0603 -2.6871 -18.0591 3.9318 -0.0147 -0.0086 0.0256 0.5938 -9.9911 -3.6829 -0.6289 -9.9714 3.7345 8.4397 17.0296 -6.6035 -36.0856 -30.7606 10.1897 0.8485 0.4198 -116.0327 24.1361 -23.5878 -15.0526 -14.9679 11.0033 15.6523 -60.9311 1.8193 2.0260 -0.3468 18.2232 22.7561 6.3529 -10.0401 7.4751 -1.4760 1.3317 100.7280 -6.4058 -30.6583 12.6427 15.3330 7.4198 -16.5271 49.5616 -3.6084 -5.4764 7.7034 -50.0340 6.7509 -1.1403 34.3984 -1.8203 -15.2511 4.0969 -13.6305 1.5926 2.5314 -1.6618 -29.3494 -17.2767 5.1901 -0.0011 34.7322 1.1605 30.4312 -19.7304 -5.6987 -1.4536 -2.2798 1.2919
-3.0215 90.7211 0.2899 4.4184 12.5009 10.5498 -0.7265 13.2697 -0.2488 -0.0318 0.7882 1.0784 3.9093 27.6836 1.6248 -3.2025 9.3899 3.5659 -0.9519 -3.6196 3.1723 -3.2921 -17.9172 4.2510 -0.0217 -0.0164 0.0498 0.5814 -10.0312 -3.6675 -0.6296 -10.0081 3.7685 8.2863 17.3439 -6.9014 -38.0885 -30.7151 11.0496 0.8688 0.4163 -115.6920 24.5630 -23.9028 -15.3537 -15.0372 10.9510 15.5837 -60.8867 1.8353 2.0451 0.5626 17.7524 21.8378 10.2190 -11.4143 7.6761 -1.1922 2.0150 101.3250 -6.1459 -27.8465 10.4283 15.4324 7.4982 -16.5367 49.9593 -3.5375 -5.4057 8.4296 -49.3776 6.5967 -1.1092 32.8870 -1.8134 -15.6140 5.1711 -12.9793 1.5945 2.4385 -1.6514 -28.5871 -17.4961 4.6114 0.0109 33.4685 1.1391 29.8554 -19.7155 -5.5669 -1.4466 -1.7924 1.2874
-3.5506 91.1461 -0.0460 3.9970 12.4879 9.5949 -0.5758 13.3677 -0.2700 -0.0355 0.8476 0.7815 4.1090 27.7060 1.3047 -2.5854 9.8363 3.3541 -1.0048 -3.6415 3.2764 -3.8259 -17.6657 4.4820 -0.0172 -0.0229 0.0552 0.5781 -10.0777 -3.6725 -0.6161 -10.0618 3.7818 8.0540 17.7164 -7.0294 -39.9100 -30.6661 11.5716 1.0087 0.3357 -115.5729 25.1716 -24.1898 -15.6253 -15.1294 10.8910 15.4900 -60.8038 1.8961 2.0584 1.4449 17.4039 21.0348 13.2698 -11.9785 7.8009 -0.7735 2.5106 102.1197 -6.2124 -25.3193 9.0662 15.5351 7.4880 -16.5144 50.0797 -3.4877 -5.3843 9.3541 -48.4578 6.5234 -1.0566 31.0687 -1.7734 -16.0608 6.4117 -12.2688 1.5960 2.2455 -1.6457 -27.7295 -17.8719 4.1877 0.0058 32.2738 1.0853 29.2136 -19.4568 -5.0988 -1.4446 -1.4196 1.2768
-4.1588 91.5353 -0.3912 3.5677 12.3874 8.4197 -0.4153 13.4768 -0.3001 -0.0236 0.8912 0.4858 4.2335 27.7486 0.9746 -2.1022 10.1601 3.2397 -1.0565 -3.6621 3.3638 -4.3153 -17.5377 4.6646 -0.0070 -0.0299 0.0480 0.5837 -10.1153 -3.6892 -0.5998 -10.1073 3.7792 7.8183 18.1498 -7.0578 -41.5098 -30.7472 12.1391 1.1408 0.2243 -115.8726 25.8617 -24.4437 -15.8394 -15.2696 10.8051 15.4030 -60.7397 1.9506 2.0760 2.2854 17.2112 20.2564 15.6865 -12.1341 7.7223 -0.1964 2.8002 103.1301 -6.4699 -22.7975 8.2275 15.6140 7.4504 -16.4942 50.0837 -3.4959 -5.3894 10.3387 -47.3924 6.5428 -0.9956 29.2385 -1.7242 -16.4365 7.5912 -11.4972 1.5959 2.0104 -1.6437 -26.9032 -18.4029 3.8623 0.0051 31.3763 1.0411 28.5685 -19.1707 -4.4048 -1.4473 -1.0820 1.2597
-4.7617 91.8500 -0.7067 3.1637 12.1568 7.1871 -0.2225 13.5862 -0.3541 -0.0288 0.9164 0.2094 4.3395 27.8108 0.6096 -1.8324 10.3576 3.1657 -1.0431 -3.6815 3.4266 -4.7967 -17.5980 4.8961 -0.0005 -0.0354 0.0380 0.5862 -10.1316 -3.7034 -0.5893 -10.1281 3.7723 7.5440 18.5781 -7.0554 -42.8020 -30.9273 12.8539 1.1597 0.1627 -116.5069 26.5912 -24.7671 -15.8842 -15.4421 10.7281 15.3585 -60.6790 1.9955 2.1273 3.0758 17.1568 19.4975 17.6145 -12.1704 7.3586 0.4897 2.9041 104.2269 -6.8942 -20.6228 7.8007 15.6677 7.4166 -16.4535 50.1184 -3.4718 -5.3783 11.2921 -46.2255 6.6878 -0.9526 27.5174 -1.6996 -16.7542 8.6597 -10.7535 1.5942 1.7860 -1.6471 -26.1668 -18.9709 3.5713 0.0123 30.8533 1.0027 27.9433 -18.9748 -3.5273 -1.4507 -0.7824 1.2514
-5.3741 92.0957 -1.0573 2.8343 11.8457 5.9540 -0.0125 13.6880 -0.4307 -0.0401 0.9363 -0.0550 4.4708 27.9232 0.2187 -1.7426 10.4393 3.1074 -1.0394 -3.6815 3.4442 -5.2757 -17.8349 5.1346 -0.0023 -0.0397 0.0308 0.5770 -10.1457 -3.7145 -0.5844 -10.1481 3.7715 7.2662 18.9527 -7.0674 -43.8231 -31.1468 13.6625 1.1929 0.1818 -117.3414 27.3398 -25.1057 -15.7053 -15.5431 10.6378 15.2815 -60.6736 2.0161 2.1445 3.6957 17.1779 18.7067 19.2958 -12.2164 6.6773 1.1356 2.8022 105.3581 -7.4895 -18.5331 7.5995 15.7298 7.4036 -16.4302 50.2376 -3.4608 -5.3786 12.0901 -45.0890 7.0114 -0.8989 25.9581 -1.6523 -17.0186 9.6672 -10.0848 1.5937 1.5873 -1.6727 -25.5149 -19.6755 3.2301 0.0335 30.7396 0.9915 27.2945 -18.8223 -2.4984 -1.4478 -0.5655 1.2292
-5.9203 92.2890 -1.4145 2.6333 11.4951 4.7810 0.1869 13.7831 -0.4915 -0.0276 0.9460 -0.3325 4.5784 28.0294 -0.1893 -1.8163 10.4205 3.0933 -1.0572 -3.6780 3.4184 -5.7671 -18.1578 5.4065 -0.0163 -0.0504 0.0387 0.5597 -10.1774 -3.7156 -0.5973 -10.1840 3.7964 7.0271 19.2613 -7.0814 -44.6797 -31.4897 14.6224 1.1572 0.2159 -118.1997 28.0142 -25.3786 -15.2106 -15.5515 10.5490 15.2007 -60.5937 2.0241 2.1369 4.0928 17.1952 17.9271 20.6679 -12.2608 5.7556 1.6107 2.6050 106.4185 -8.3461 -16.8765 7.5845 15.8148 7.3799 -16.3821 50.3916 -3.4413 -5.3695 12.5671 -44.0613 7.6776 -0.8610 24.6323 -1.6202 -17.2314 10.5901 -9.6406 1.5954 1.4002 -1.7036 -25.0393 -20.3667 2.9471 0.0616 30.8519 1.0195 26.7142 -18.7193 -1.4446 -1.4383 -0.4180 1.2086
